<?xml version="1.0" standalone="no"?>
<!DOCTYPE svg PUBLIC "-//W3C//DTD SVG 20010904//EN"
 "http://www.w3.org/TR/2001/REC-SVG-20010904/DTD/svg10.dtd">
<svg version="1.0" xmlns="http://www.w3.org/2000/svg"
 width="512.000000pt" height="512.000000pt" viewBox="0 0 512.000000 512.000000"
 preserveAspectRatio="xMidYMid meet" fill='#637381'>

<g transform="translate(0.000000,512.000000) scale(0.100000,-0.100000)">
<path d="M1340 4801 c-43 -13 -84 -38 -111 -68 -26 -28 -1175 -2010 -1210
-2088 -21 -46 -23 -105 -6 -155 19 -52 1185 -2070 1216 -2103 14 -16 44 -39
66 -50 l40 -22 1225 0 1225 0 40 22 c22 11 52 34 66 50 31 33 1197 2050 1215
2103 17 45 17 95 1 140 -17 45 -526 929 -549 952 -42 42 -118 7 -118 -53 0
-22 76 -162 265 -490 146 -252 265 -469 264 -481 0 -37 -1181 -2071 -1210
-2085 -35 -18 -2363 -18 -2398 0 -31 15 -1210 2049 -1210 2087 0 38 1179 2072
1210 2087 35 18 2363 18 2398 0 17 -8 103 -148 281 -456 141 -244 265 -450
275 -457 46 -34 121 9 113 64 -2 15 -120 229 -262 475 -276 479 -295 504 -381
526 -51 13 -2403 14 -2445 2z"/>
<path d="M1610 4160 c-19 -19 -20 -33 -20 -385 l0 -365 -200 0 c-200 0 -201 0
-225 -25 -14 -13 -25 -35 -25 -47 0 -26 1041 -1836 1067 -1855 44 -33 113 5
113 61 0 15 -18 59 -41 98 -22 38 -39 70 -37 71 1 1 140 0 308 -3 l305 -5 55
-27 c30 -15 72 -44 92 -65 30 -31 308 -499 308 -518 0 -3 -138 -5 -307 -3
l-308 3 -50 27 c-60 32 -110 82 -161 163 -44 70 -49 75 -91 75 -41 0 -77 -42
-69 -82 14 -70 116 -203 198 -258 116 -77 138 -80 578 -80 356 0 388 1 402 18
32 36 362 618 380 671 29 81 34 174 14 264 -15 68 -50 132 -350 653 -343 593
-357 615 -407 599 -28 -9 -59 -45 -59 -69 0 -12 47 -104 105 -206 58 -101 110
-200 115 -220 13 -45 13 -135 0 -181 -6 -20 -66 -134 -135 -253 -68 -119 -130
-232 -136 -251 -7 -19 -15 -35 -19 -35 -9 1 -287 494 -300 534 -16 51 -15 151
3 202 9 23 68 133 133 245 65 112 129 233 142 269 31 85 33 207 4 297 -20 64
-362 668 -390 691 -26 20 -76 15 -99 -10 -11 -13 -57 -88 -102 -168 -46 -80
-87 -149 -91 -154 -5 -5 -141 68 -315 168 -320 184 -346 195 -385 156z m387
-331 c126 -72 229 -132 231 -134 2 -2 -8 -21 -21 -42 -50 -78 -86 -161 -98
-224 -7 -35 -13 -65 -14 -66 -1 -2 -28 7 -61 19 -43 15 -91 22 -176 26 l-118
4 0 280 c0 243 2 279 15 274 8 -3 117 -64 242 -137z m697 -108 c161 -280 168
-296 168 -387 0 -88 -11 -115 -147 -349 -53 -92 -110 -194 -125 -227 l-28 -58
-145 252 c-80 139 -150 271 -156 293 -15 54 -14 133 2 186 11 35 112 217 284
512 2 4 8 5 13 2 4 -3 65 -103 134 -224z m-684 -492 c30 -14 73 -44 95 -66 23
-23 101 -146 183 -287 78 -135 142 -247 142 -248 0 -2 -134 0 -297 3 -438 8
-426 1 -643 376 -77 134 -140 245 -140 248 0 4 136 5 303 3 301 -3 302 -3 357
-29z m435 -769 c93 -36 137 -91 295 -365 76 -132 137 -240 136 -240 0 0 -138
2 -306 5 -304 5 -305 5 -361 31 -32 15 -74 44 -96 66 -22 22 -100 145 -181
285 -78 136 -142 248 -142 250 0 2 134 0 297 -3 281 -5 301 -7 358 -29z m1151
-300 c71 -124 136 -247 146 -275 22 -64 22 -136 0 -200 -18 -53 -281 -515
-293 -515 -3 0 -70 112 -148 248 -211 371 -211 365 -11 713 72 125 135 241
141 258 14 39 -2 61 165 -229z"/>
</g>
</svg>
