<?xml version="1.0" standalone="no"?>
<!DOCTYPE svg PUBLIC "-//W3C//DTD SVG 20010904//EN"
 "http://www.w3.org/TR/2001/REC-SVG-20010904/DTD/svg10.dtd">
<svg version="1.0" xmlns="http://www.w3.org/2000/svg"
 width="512.000000pt" height="512.000000pt" viewBox="0 0 512.000000 512.000000"
 preserveAspectRatio="xMidYMid meet" fill='#637381'>

<g transform="translate(0.000000,512.000000) scale(0.100000,-0.100000)" >
<path d="M2216 5110 c-124 -32 -266 -146 -419 -338 -303 -381 -507 -672 -507
-725 0 -40 57 -97 98 -97 44 0 71 27 169 167 104 151 270 372 400 535 231 289
360 331 546 175 71 -59 250 -280 458 -567 488 -670 783 -1268 913 -1850 53
-237 61 -317 61 -600 0 -238 -3 -276 -23 -370 -91 -419 -297 -732 -627 -954
-95 -64 -289 -158 -405 -196 -437 -142 -928 -112 -1338 80 -441 209 -723 565
-829 1050 -45 205 -44 567 3 839 41 242 143 573 255 826 34 77 64 159 66 182
4 37 1 46 -25 73 -24 23 -39 30 -69 30 -68 0 -83 -24 -198 -305 -180 -441
-265 -843 -265 -1257 0 -417 89 -736 288 -1034 442 -660 1354 -942 2176 -673
540 176 937 566 1106 1085 72 220 85 320 85 629 0 211 -4 295 -18 385 -17 106
-50 273 -62 310 -4 12 10 23 52 40 86 36 223 131 290 203 116 124 192 277 229
457 23 113 15 384 -15 519 -74 335 -259 697 -553 1089 -180 238 -256 297 -383
297 -81 -1 -122 -19 -199 -86 -60 -53 -226 -267 -336 -432 l-83 -125 -37 46
c-20 26 -83 108 -140 182 -58 74 -147 178 -200 231 -78 79 -110 103 -181 138
-75 37 -96 43 -165 46 -43 3 -96 0 -118 -5z m1525 -227 c53 -48 185 -216 291
-373 204 -298 328 -567 385 -831 14 -64 18 -127 18 -264 -1 -171 -2 -184 -29
-260 -50 -144 -125 -252 -229 -331 -69 -52 -174 -108 -180 -96 -2 4 -17 45
-32 92 -130 402 -367 862 -687 1338 -50 73 -88 139 -85 146 37 96 378 559 440
596 45 28 61 25 108 -17z"/>
<path d="M1115 3761 c-37 -16 -60 -51 -60 -93 0 -33 6 -45 33 -69 44 -40 93
-40 133 0 76 76 -7 202 -106 162z"/>
<path d="M1187 2606 c-14 -13 -28 -39 -32 -57 -3 -19 -5 -224 -3 -456 l3 -421
24 -26 c44 -47 112 -44 153 8 15 18 18 46 18 209 l0 187 156 0 156 0 29 29
c51 51 33 137 -33 160 -17 6 -93 11 -169 11 l-139 0 0 90 0 90 139 0 c76 0
152 5 169 11 66 23 84 109 33 160 l-29 29 -225 0 c-222 0 -224 0 -250 -24z"/>
<path d="M2252 2612 c-17 -13 -71 -139 -193 -450 -93 -238 -169 -444 -169
-458 0 -16 13 -39 34 -60 67 -67 134 -33 184 91 l27 70 176 3 177 2 32 -79
c17 -44 39 -86 49 -95 27 -25 74 -30 109 -12 37 19 52 44 52 86 0 50 -325 870
-356 898 -31 27 -89 29 -122 4z m112 -487 l43 -110 -90 -3 c-49 -1 -92 -1 -94
2 -3 3 14 53 37 113 48 122 52 131 57 118 2 -6 23 -59 47 -120z"/>
<path d="M2847 2619 c-52 -30 -58 -116 -11 -160 23 -22 35 -24 140 -27 l114
-4 0 -368 c0 -397 2 -410 51 -436 42 -21 75 -17 111 15 l33 29 3 381 3 381
103 0 c90 0 107 3 136 23 58 39 64 106 13 153 l-26 24 -326 0 c-203 0 -333 -4
-344 -11z"/>
</g>
</svg>
