<?xml version="1.0" standalone="no"?>
<!DOCTYPE svg PUBLIC "-//W3C//DTD SVG 20010904//EN"
 "http://www.w3.org/TR/2001/REC-SVG-20010904/DTD/svg10.dtd">
<svg version="1.0" xmlns="http://www.w3.org/2000/svg"
 width="512.000000pt" height="512.000000pt" viewBox="0 0 512.000000 512.000000"
 preserveAspectRatio="xMidYMid meet" fill='#637381'>

<g transform="translate(0.000000,512.000000) scale(0.100000,-0.100000)">
<path d="M1098 4686 c-387 -167 -681 -416 -823 -696 -92 -183 -121 -335 -112
-590 24 -668 208 -1156 584 -1551 121 -126 126 -138 131 -279 l3 -115 -120
-280 c-67 -153 -121 -290 -121 -303 0 -29 42 -72 72 -72 12 0 127 35 255 77
l233 78 233 -78 c128 -42 243 -77 255 -77 30 0 72 43 72 72 0 13 -54 150 -121
303 l-120 280 3 115 c4 139 11 155 117 265 42 44 94 102 116 128 l38 48 79
-78 c107 -105 119 -130 129 -275 16 -210 75 -344 214 -483 125 -125 247 -185
419 -209 l90 -12 12 -64 c35 -187 145 -331 319 -415 106 -51 184 -69 305 -69
163 0 294 44 420 140 l65 50 50 -14 c78 -20 232 -26 340 -12 353 44 594 206
695 465 20 49 24 79 24 165 0 118 -18 178 -82 280 -149 238 -479 378 -843 357
l-108 -6 -3 1032 -3 1032 -27 80 c-40 116 -92 199 -183 290 -91 91 -175 144
-290 182 l-80 27 -414 4 c-448 4 -528 -2 -665 -45 -89 -27 -215 -88 -283 -135
l-44 -30 -66 62 c-156 146 -391 292 -593 369 -71 27 -80 26 -172 -13z m247
-196 c286 -141 533 -362 638 -574 42 -84 73 -179 85 -258 l9 -58 -878 0 c-830
0 -877 1 -874 18 2 9 9 46 15 82 48 264 268 533 597 726 136 80 241 125 277
119 16 -3 75 -28 131 -55z m2036 -201 c95 -37 148 -70 213 -135 65 -65 98
-117 135 -213 l26 -66 3 -1057 c2 -717 -1 -1058 -8 -1058 -5 0 -37 20 -71 45
-34 25 -65 45 -70 45 -5 0 -10 446 -11 1003 l-3 1002 -32 67 c-44 93 -100 151
-191 196 l-76 37 -385 3 c-262 2 -410 0 -461 -8 -94 -15 -208 -58 -279 -106
-42 -29 -56 -34 -62 -23 -4 8 -24 39 -43 69 l-35 55 52 34 c94 60 206 104 322
126 53 10 174 13 490 12 l420 -2 66 -26z m-107 -301 c55 -16 138 -99 154 -154
9 -31 12 -272 12 -980 l0 -939 -88 0 c-67 0 -102 -5 -152 -24 -168 -62 -300
-190 -386 -375 l-35 -76 -46 0 c-68 0 -119 19 -167 61 -72 64 -80 89 -86 289
-8 246 -12 254 -247 491 l-176 178 46 138 c90 273 129 527 131 853 1 195 -1
224 -23 308 l-23 94 22 23 c39 42 176 104 260 118 14 2 191 5 394 6 264 1 380
-2 410 -11z m-2554 -1204 c0 -746 10 -682 -85 -536 -177 275 -284 645 -310
1080 l-7 112 201 0 201 0 0 -656z m482 534 c4 -100 9 -132 26 -168 34 -71 75
-113 144 -151 58 -31 70 -34 148 -34 78 0 90 3 148 34 70 38 101 70 139 145
23 45 27 66 31 174 l4 122 120 0 120 0 -7 -112 c-23 -371 -92 -654 -225 -923
-85 -170 -172 -295 -306 -435 -146 -153 -184 -231 -184 -377 l0 -73 -160 0
-160 0 0 74 c0 122 -49 244 -130 321 l-30 29 0 748 0 748 159 0 159 0 4 -122z
m476 13 c-3 -118 -12 -141 -72 -185 -39 -29 -133 -29 -172 0 -60 44 -69 67
-72 185 l-4 109 162 0 162 0 -4 -109z m615 -1356 c18 -35 22 -63 27 -216 l6
-177 37 -74 c62 -127 180 -210 315 -224 l63 -7 -6 -46 c-3 -25 -8 -61 -11 -80
l-5 -33 -59 6 c-218 25 -403 177 -474 390 -10 27 -21 105 -26 173 -12 170 -34
218 -170 357 l-101 104 32 53 c69 115 42 121 206 -42 79 -79 154 -162 166
-184z m1222 -259 c170 -84 283 -274 315 -530 44 -348 -79 -550 -372 -612 -116
-25 -235 -7 -356 55 -173 88 -247 282 -212 557 36 286 168 483 375 557 76 27
159 18 250 -27z m745 -51 c239 -36 416 -147 498 -313 33 -68 37 -84 37 -152 0
-68 -4 -84 -37 -152 -106 -214 -394 -344 -716 -325 -52 3 -96 8 -98 10 -3 2 7
39 21 82 66 195 35 503 -71 722 -24 51 -44 94 -44 96 0 5 95 34 130 40 58 10
191 6 280 -8z m-2801 -471 c39 -92 69 -169 67 -171 -3 -3 -77 19 -165 48
l-161 54 -161 -54 c-88 -29 -162 -51 -165 -48 -2 2 28 79 67 171 l71 166 188
0 188 0 71 -166z"/>
<path d="M1040 4307 c-19 -6 -58 -34 -85 -62 -71 -70 -91 -145 -63 -239 16
-55 99 -138 154 -154 94 -28 169 -8 239 63 102 101 102 229 0 330 -70 71 -152
91 -245 62z m135 -172 c50 -49 15 -135 -55 -135 -41 0 -80 39 -80 80 0 41 39
80 80 80 19 0 40 -9 55 -25z"/>
<path d="M2860 3824 c-192 -70 -273 -277 -179 -455 36 -67 68 -98 143 -137 43
-22 64 -26 136 -27 79 0 90 3 150 36 231 127 222 456 -15 568 -65 31 -172 38
-235 15z m163 -158 c104 -43 128 -175 47 -256 -66 -66 -156 -67 -221 -1 -124
123 13 325 174 257z"/>
</g>
</svg>
