<?xml version="1.0" standalone="no"?>
<!DOCTYPE svg PUBLIC "-//W3C//DTD SVG 20010904//EN"
 "http://www.w3.org/TR/2001/REC-SVG-20010904/DTD/svg10.dtd">
<svg version="1.0" xmlns="http://www.w3.org/2000/svg"
 width="512.000000pt" height="512.000000pt" viewBox="0 0 512.000000 512.000000"
 preserveAspectRatio="xMidYMid meet" fill='#637381'>

<g transform="translate(0.000000,512.000000) scale(0.100000,-0.100000)">
<path d="M1038 4840 c-18 -11 -113 -142 -245 -340 -291 -436 -482 -822 -512
-1034 -18 -126 11 -281 76 -411 48 -96 90 -151 180 -235 137 -128 324 -200
517 -200 214 1 382 66 537 208 168 155 259 374 247 596 -9 158 -99 385 -278
697 -139 243 -453 710 -486 723 -19 7 -15 8 -36 -4z m118 -263 c329 -477 534
-861 579 -1086 65 -320 -166 -666 -505 -758 -104 -28 -274 -23 -375 10 -234
77 -409 264 -465 498 -44 183 -15 317 128 604 78 156 158 297 265 465 103 161
268 400 276 400 3 0 47 -60 97 -133z"/>
<path d="M1439 3434 c-7 -9 -16 -42 -20 -74 -19 -167 -152 -300 -319 -319 -85
-10 -115 -45 -72 -84 23 -21 61 -21 137 -2 185 49 318 196 348 385 9 62 9 72
-8 90 -22 24 -48 26 -66 4z"/>
<path d="M4450 4836 c-30 -6 -71 -20 -90 -30 -19 -10 -259 -241 -532 -514
-400 -399 -498 -502 -498 -522 0 -31 17 -50 44 -50 13 0 195 174 526 503 541
539 526 527 626 527 51 0 133 -39 166 -78 59 -70 73 -171 35 -252 -10 -21
-818 -835 -2014 -2031 -2157 -2154 -2015 -2019 -2119 -2019 -46 0 -130 37
-161 71 -32 36 -63 109 -63 153 0 103 -73 24 1267 1366 683 685 1243 1253
1243 1262 0 23 -27 48 -53 48 -30 0 -2486 -2456 -2515 -2515 -47 -94 -47 -207
-1 -302 29 -60 117 -137 181 -159 71 -24 159 -21 233 6 58 22 113 75 2043
2004 1091 1089 1997 2000 2013 2023 63 90 79 200 44 303 -25 75 -119 170 -190
193 -75 24 -124 27 -185 13z"/>
<path d="M2988 3452 c-73 -73 -87 -111 -49 -132 32 -17 40 -13 112 57 70 68
85 103 57 131 -24 24 -53 11 -120 -56z"/>
<path d="M3943 2373 c-297 -418 -530 -828 -620 -1088 -37 -107 -38 -114 -37
-245 0 -119 4 -145 27 -215 44 -132 99 -219 201 -320 135 -135 278 -204 464
-225 292 -33 590 113 747 365 89 142 133 326 114 476 -31 245 -306 762 -691
1297 -85 118 -90 117 -205 -45z m284 -240 c337 -504 508 -853 520 -1058 15
-252 -141 -512 -377 -629 -105 -52 -201 -76 -303 -76 -204 0 -419 101 -542
258 -98 123 -149 267 -149 422 0 83 5 108 36 200 84 246 257 555 556 992 48
70 90 128 94 128 3 0 78 -107 165 -237z"/>
<path d="M4448 1098 c-10 -8 -21 -41 -27 -82 -27 -178 -152 -298 -334 -320
-69 -9 -89 -32 -62 -73 16 -24 21 -25 79 -20 217 20 393 195 413 412 5 57 4
63 -18 79 -28 19 -31 19 -51 4z"/>
</g>
</svg>
